# xmcd CD database file
#
# Track frame offsets:
#	150
#	16955
#	41395
#
# Disc length: 767 seconds
#
# Revision: 0
# Processed by: cddbd v1.5.1PL2 Copyright (c) Steve Scherf et al.
# Submitted via: CDex 1.51
#
DISCID=1702fd03
DTITLE=Misa - Du-Du Di-Da
DYEAR=2005
DGENRE=Trance
TTITLE0=Du-Du Di-Da - Radio Edit
TTITLE1=Du-Du Di-Da - Extended Version
TTITLE2=Du-Du Di-Da - Karaoke Version
EXTD=YEAR: 2005
EXTT0=
EXTT1=
EXTT2=
PLAYORDER=
